<svg width="24" height="24" viewBox="0 0 24 24" fill="none" xmlns="http://www.w3.org/2000/svg">
<path d="M12.0246 6.328C8.8817 6.328 6.37723 8.88157 6.37723 11.9753C6.37723 15.1182 8.8817 17.6226 12.0246 17.6226C15.1183 17.6226 17.6719 15.1182 17.6719 11.9753C17.6719 8.88157 15.1183 6.328 12.0246 6.328ZM12.0246 15.6584C10.0112 15.6584 8.34152 14.0378 8.34152 11.9753C8.34152 9.96193 9.96205 8.3414 12.0246 8.3414C14.0379 8.3414 15.6585 9.96193 15.6585 11.9753C15.6585 14.0378 14.0379 15.6584 12.0246 15.6584ZM19.1942 6.13157C19.1942 5.39497 18.6049 4.80568 17.8683 4.80568C17.1317 4.80568 16.5424 5.39497 16.5424 6.13157C16.5424 6.86818 17.1317 7.45747 17.8683 7.45747C18.6049 7.45747 19.1942 6.86818 19.1942 6.13157ZM22.9263 7.45747C22.8281 5.68961 22.4353 4.11818 21.1585 2.8414C19.8817 1.56461 18.3103 1.17175 16.5424 1.07354C14.7254 0.975324 9.27455 0.975324 7.45759 1.07354C5.68973 1.17175 4.16741 1.56461 2.84152 2.8414C1.56473 4.11818 1.17188 5.68961 1.07366 7.45747C0.975446 9.27443 0.975446 14.7253 1.07366 16.5423C1.17188 18.3101 1.56473 19.8325 2.84152 21.1584C4.16741 22.4351 5.68973 22.828 7.45759 22.9262C9.27455 23.0244 14.7254 23.0244 16.5424 22.9262C18.3103 22.828 19.8817 22.4351 21.1585 21.1584C22.4353 19.8325 22.8281 18.3101 22.9263 16.5423C23.0246 14.7253 23.0246 9.27443 22.9263 7.45747ZM20.5692 18.4575C20.2254 19.4396 19.4397 20.1762 18.5067 20.5691C17.0335 21.1584 13.596 21.011 12.0246 21.011C10.404 21.011 6.96652 21.1584 5.54241 20.5691C4.56027 20.1762 3.82366 19.4396 3.4308 18.4575C2.84152 17.0334 2.98884 13.5959 2.98884 11.9753C2.98884 10.4039 2.84152 6.9664 3.4308 5.49318C3.82366 4.56015 4.56027 3.82354 5.54241 3.43068C6.96652 2.8414 10.404 2.98872 12.0246 2.98872C13.596 2.98872 17.0335 2.8414 18.5067 3.43068C19.4397 3.77443 20.1763 4.56015 20.5692 5.49318C21.1585 6.9664 21.0112 10.4039 21.0112 11.9753C21.0112 13.5959 21.1585 17.0334 20.5692 18.4575Z" fill="white"/>
</svg>
