<svg width="24" height="24" viewBox="0 0 24 24" fill="none" xmlns="http://www.w3.org/2000/svg">
<path d="M20.7613 7.50085C21.6223 6.85506 22.3973 6.08011 23 5.176C22.225 5.52042 21.3209 5.77874 20.4168 5.86484C21.364 5.30515 22.0528 4.4441 22.3973 3.36778C21.5362 3.88441 20.546 4.27189 19.5558 4.48715C18.6947 3.58304 17.5323 3.06641 16.2407 3.06641C13.7436 3.06641 11.7202 5.08989 11.7202 7.58695C11.7202 7.93138 11.7632 8.2758 11.8493 8.62022C8.10372 8.40496 4.7456 6.59674 2.50685 3.88441C2.11937 4.5302 1.90411 5.30515 1.90411 6.16621C1.90411 7.71611 2.67906 9.0938 3.92759 9.91181C3.19569 9.86875 2.4638 9.69654 1.86106 9.35212V9.39517C1.86106 11.5909 3.41096 13.3991 5.47749 13.8296C5.13307 13.9157 4.70254 14.0018 4.31507 14.0018C4.0137 14.0018 3.75538 13.9588 3.45401 13.9157C4.0137 15.7239 5.69276 17.0155 7.67319 17.0586C6.12329 18.2641 4.18591 18.996 2.07632 18.996C1.68885 18.996 1.34442 18.9529 1 18.9099C2.98043 20.2014 5.34834 20.9333 7.93151 20.9333C16.2407 20.9333 20.7613 14.0879 20.7613 8.10359C20.7613 7.88832 20.7613 7.71611 20.7613 7.50085Z" fill="white"/>
</svg>
